<?xml version="1.0" encoding="UTF-8" standalone="no"?>
<!DOCTYPE svg PUBLIC "-//W3C//DTD SVG 1.1//EN" "http://www.w3.org/Graphics/SVG/1.1/DTD/svg11.dtd">
<svg width="100%" height="100%" viewBox="0 0 265 265" version="1.1" xmlns="http://www.w3.org/2000/svg" xmlns:xlink="http://www.w3.org/1999/xlink" xml:space="preserve" xmlns:serif="http://www.serif.com/" style="fill-rule:evenodd;clip-rule:evenodd;stroke-linecap:round;stroke-linejoin:round;stroke-miterlimit:1.5;">
    <g transform="matrix(1,0,0,1,-190.517,-235.517)">
        <path d="M224.913,456.297C203.833,432.896 191,401.935 191,368C191,295.147 250.147,236 323,236C395.853,236 455,295.147 455,368C455,440.853 395.853,500 323,500C296.263,500 271.372,492.034 250.573,478.347L222.93,490.205L224.913,456.297Z" style="fill:rgb(242,242,242);stroke:black;stroke-width:0.97px;"/>
    </g>
    <g transform="matrix(1.86353,0,0,1.86353,-244.007,-393.246)">
        <path d="M159.252,277.152C159.252,277.379 159.246,277.691 159.234,278.089C159.223,278.488 159.191,278.898 159.141,279.32C159.09,279.742 159.016,280.132 158.918,280.492C158.82,280.851 158.682,281.105 158.502,281.254C158.408,281.332 158.291,281.394 158.15,281.441C158.01,281.488 157.861,281.521 157.705,281.541C157.549,281.56 157.394,281.572 157.242,281.576C157.09,281.58 156.955,281.582 156.838,281.582C156.76,281.582 156.668,281.582 156.562,281.582C156.457,281.582 156.353,281.576 156.252,281.564C156.15,281.552 156.053,281.529 155.959,281.494C155.865,281.459 155.795,281.402 155.748,281.324C155.725,281.285 155.705,281.228 155.689,281.154C155.674,281.08 155.664,281 155.66,280.914C155.656,280.828 155.654,280.744 155.654,280.662L155.654,280.468C155.654,280.273 155.672,280.13 155.707,280.041C155.742,279.951 155.797,279.888 155.871,279.853C155.945,279.818 156.039,279.802 156.152,279.806C156.266,279.81 156.392,279.812 156.533,279.812C156.658,279.812 156.752,279.779 156.814,279.712C156.877,279.646 156.92,279.564 156.943,279.466C156.967,279.369 156.98,279.267 156.984,279.162C156.988,279.056 156.99,278.961 156.99,278.875C156.99,278.703 156.975,278.57 156.943,278.476C156.912,278.382 156.863,278.316 156.797,278.277C156.73,278.238 156.642,278.216 156.533,278.212C156.424,278.209 156.291,278.207 156.135,278.207C155.986,278.207 155.842,278.287 155.701,278.447C155.56,278.607 155.42,278.81 155.279,279.056C155.139,279.302 154.998,279.566 154.857,279.847C154.717,280.129 154.568,280.392 154.412,280.638C154.256,280.884 154.096,281.087 153.932,281.248C153.767,281.408 153.592,281.488 153.404,281.488C153.326,281.488 153.213,281.443 153.064,281.353C152.916,281.263 152.769,281.158 152.625,281.037C152.48,280.916 152.355,280.793 152.25,280.668C152.144,280.543 152.092,280.433 152.092,280.339C152.092,280.246 152.119,280.162 152.174,280.087C152.228,280.013 152.289,279.943 152.355,279.877C152.422,279.81 152.484,279.748 152.543,279.689C152.601,279.63 152.631,279.562 152.631,279.484C152.631,279.445 152.617,279.425 152.59,279.425C152.562,279.425 152.541,279.418 152.525,279.402C152.361,279.347 152.184,279.316 151.992,279.308C151.801,279.3 151.615,279.296 151.435,279.296C151.396,279.296 151.334,279.295 151.248,279.291C151.162,279.287 151.074,279.289 150.984,279.296C150.894,279.304 150.81,279.316 150.732,279.332C150.654,279.347 150.596,279.382 150.557,279.437C150.533,279.476 150.523,279.505 150.527,279.525C150.531,279.545 150.533,279.57 150.533,279.601C150.533,279.671 150.504,279.722 150.445,279.754C150.387,279.785 150.316,279.806 150.234,279.818C150.152,279.83 150.07,279.834 149.988,279.83C149.906,279.826 149.846,279.824 149.807,279.824C149.697,279.824 149.56,279.816 149.396,279.8C149.232,279.785 149.103,279.746 149.01,279.683C148.877,279.589 148.773,279.427 148.699,279.197C148.625,278.966 148.566,278.718 148.523,278.453C148.48,278.187 148.453,277.923 148.441,277.662C148.43,277.4 148.424,277.195 148.424,277.046C148.424,276.953 148.426,276.859 148.43,276.765C148.434,276.671 148.435,276.578 148.435,276.484L148.435,275.804C148.435,275.531 148.441,275.236 148.453,274.92C148.465,274.603 148.49,274.277 148.529,273.941C148.568,273.605 148.623,273.291 148.693,272.998C148.764,272.705 148.857,272.441 148.975,272.207C149.092,271.972 149.232,271.8 149.396,271.691C149.49,271.629 149.621,271.578 149.789,271.539C149.957,271.5 150.133,271.468 150.316,271.445C150.5,271.421 150.68,271.402 150.855,271.386C151.031,271.371 151.178,271.363 151.295,271.363C151.49,271.363 151.685,271.371 151.881,271.386C152.076,271.402 152.26,271.453 152.432,271.539C152.611,271.632 152.752,271.754 152.853,271.902C152.955,272.05 153.033,272.211 153.088,272.382C153.142,272.554 153.178,272.736 153.193,272.927C153.209,273.119 153.217,273.304 153.217,273.484C153.217,273.711 153.209,273.943 153.193,274.181C153.178,274.42 153.17,274.656 153.17,274.89L153.17,276.543C153.17,276.629 153.172,276.734 153.176,276.859C153.18,276.984 153.189,277.113 153.205,277.246C153.221,277.379 153.24,277.504 153.264,277.621C153.287,277.738 153.322,277.836 153.369,277.914C153.416,277.875 153.457,277.781 153.492,277.632C153.527,277.484 153.557,277.298 153.58,277.076C153.603,276.853 153.621,276.615 153.633,276.361C153.644,276.107 153.654,275.863 153.662,275.629C153.67,275.394 153.674,275.185 153.674,275.002L153.674,274.621C153.674,274.308 153.67,273.994 153.662,273.677C153.654,273.361 153.65,273.046 153.65,272.734C153.65,272.375 153.703,272.095 153.809,271.896C153.914,271.697 154.062,271.548 154.254,271.451C154.445,271.353 154.67,271.295 154.928,271.275C155.185,271.255 155.459,271.246 155.748,271.246C156.178,271.246 156.601,271.261 157.019,271.293C157.437,271.324 157.838,271.445 158.221,271.656C158.447,271.781 158.627,271.976 158.76,272.242C158.877,272.492 158.971,272.775 159.041,273.091C159.111,273.408 159.16,273.732 159.187,274.064C159.215,274.396 159.232,274.726 159.24,275.054C159.248,275.382 159.252,275.687 159.252,275.968L159.252,277.152ZM156.592,274.046C156.701,274.046 156.791,274.011 156.861,273.941C156.932,273.871 156.967,273.781 156.967,273.671C156.967,273.351 156.892,273.158 156.744,273.091C156.596,273.025 156.385,272.992 156.111,272.992C155.971,272.992 155.859,273.011 155.777,273.05C155.695,273.089 155.654,273.183 155.654,273.332L155.654,273.601C155.654,273.781 155.728,273.9 155.877,273.959C156.025,274.017 156.174,274.046 156.322,274.046L156.592,274.046ZM151.049,274.504C151.127,274.504 151.185,274.478 151.225,274.427C151.264,274.377 151.295,274.318 151.318,274.252C151.342,274.185 151.355,274.117 151.359,274.046C151.363,273.976 151.365,273.91 151.365,273.847C151.365,273.808 151.363,273.769 151.359,273.73C151.355,273.691 151.353,273.652 151.353,273.613C151.353,273.449 151.33,273.336 151.283,273.273C151.236,273.211 151.127,273.179 150.955,273.179C150.767,273.179 150.644,273.248 150.586,273.384C150.527,273.521 150.498,273.668 150.498,273.824L150.498,274.14C150.498,274.25 150.523,274.337 150.574,274.404C150.625,274.47 150.709,274.504 150.826,274.504L151.049,274.504ZM155.678,276.296C155.678,276.406 155.701,276.488 155.748,276.543C155.795,276.597 155.853,276.632 155.924,276.648C155.994,276.664 156.072,276.671 156.158,276.671L156.404,276.671C156.654,276.671 156.822,276.629 156.908,276.543C156.994,276.457 157.037,276.289 157.037,276.039C157.037,275.82 156.969,275.687 156.832,275.64C156.695,275.593 156.537,275.57 156.357,275.57L156.146,275.57C156.045,275.57 155.941,275.582 155.836,275.605C155.73,275.629 155.678,275.703 155.678,275.828L155.678,276.296ZM150.439,277.023C150.439,277.171 150.473,277.302 150.539,277.416C150.605,277.529 150.721,277.586 150.885,277.586C151.072,277.586 151.193,277.533 151.248,277.427C151.303,277.322 151.33,277.191 151.33,277.035C151.33,276.988 151.328,276.937 151.324,276.882C151.32,276.828 151.318,276.777 151.318,276.73C151.318,276.55 151.283,276.42 151.213,276.337C151.142,276.255 151.014,276.214 150.826,276.214C150.67,276.214 150.566,276.269 150.516,276.379C150.465,276.488 150.439,276.609 150.439,276.742L150.439,277.023Z" style="fill-rule:nonzero;"/>
        <path d="M163.857,280.785C163.732,280.785 163.642,280.814 163.588,280.873C163.533,280.931 163.49,280.99 163.459,281.048C163.428,281.107 163.387,281.162 163.336,281.212C163.285,281.263 163.189,281.289 163.049,281.289C162.846,281.289 162.631,281.277 162.404,281.254C162.178,281.23 161.975,281.164 161.795,281.054C161.678,280.984 161.576,280.843 161.49,280.632C161.404,280.421 161.334,280.177 161.279,279.9C161.225,279.623 161.182,279.322 161.15,278.998C161.119,278.673 161.096,278.361 161.08,278.06C161.064,277.759 161.055,277.482 161.051,277.228C161.047,276.974 161.045,276.781 161.045,276.648C161.045,275.914 161.062,275.275 161.098,274.732C161.133,274.189 161.205,273.72 161.314,273.326C161.424,272.931 161.588,272.609 161.807,272.359C162.025,272.109 162.318,271.91 162.685,271.761C163.053,271.613 163.508,271.509 164.051,271.451C164.594,271.392 165.244,271.363 166.002,271.363C167.072,271.363 167.914,271.441 168.527,271.597C169.141,271.754 169.603,272.027 169.916,272.418C170.228,272.808 170.428,273.33 170.514,273.982C170.6,274.634 170.642,275.461 170.642,276.461L170.642,277.064C170.642,277.326 170.637,277.613 170.625,277.925C170.613,278.238 170.59,278.562 170.555,278.898C170.519,279.234 170.476,279.545 170.426,279.83C170.375,280.115 170.307,280.369 170.221,280.591C170.135,280.814 170.025,280.964 169.892,281.043C169.705,281.16 169.498,281.23 169.271,281.254C169.045,281.277 168.822,281.289 168.603,281.289C168.447,281.289 168.348,281.263 168.305,281.212C168.262,281.162 168.223,281.105 168.187,281.043C168.152,280.98 168.098,280.921 168.023,280.867C167.949,280.812 167.814,280.785 167.619,280.785L163.857,280.785ZM167.408,275.195C167.775,275.195 168.023,275.109 168.152,274.937C168.281,274.765 168.346,274.504 168.346,274.152C168.346,273.894 168.277,273.693 168.141,273.548C168.004,273.404 167.836,273.296 167.637,273.226C167.437,273.156 167.223,273.111 166.992,273.091C166.762,273.072 166.553,273.062 166.365,273.062C166.154,273.062 165.943,273.068 165.732,273.08C165.521,273.091 165.314,273.097 165.111,273.097C164.838,273.097 164.588,273.107 164.361,273.127C164.135,273.146 163.943,273.203 163.787,273.296C163.631,273.39 163.512,273.529 163.43,273.712C163.348,273.896 163.307,274.152 163.307,274.48C163.307,274.644 163.357,274.777 163.459,274.879C163.56,274.98 163.682,275.054 163.822,275.101C163.963,275.148 164.115,275.175 164.279,275.183C164.443,275.191 164.588,275.195 164.713,275.195L167.408,275.195ZM163.318,278.136C163.318,278.222 163.326,278.322 163.342,278.435C163.357,278.548 163.389,278.64 163.435,278.711C163.514,278.82 163.666,278.906 163.892,278.968C164.119,279.031 164.365,279.076 164.631,279.103C164.896,279.13 165.158,279.146 165.416,279.15C165.674,279.154 165.865,279.156 165.99,279.156L166.459,279.156C166.685,279.156 166.91,279.148 167.133,279.132C167.355,279.117 167.557,279.07 167.736,278.992C167.916,278.914 168.064,278.796 168.182,278.64C168.299,278.484 168.357,278.261 168.357,277.972C168.357,277.574 168.273,277.287 168.105,277.111C167.937,276.935 167.654,276.847 167.256,276.847C167.045,276.847 166.838,276.849 166.635,276.853C166.432,276.857 166.225,276.859 166.014,276.859C165.865,276.859 165.719,276.861 165.574,276.865C165.43,276.869 165.283,276.871 165.135,276.871C165.017,276.871 164.902,276.869 164.789,276.865C164.676,276.861 164.56,276.859 164.443,276.859C164.092,276.859 163.816,276.933 163.617,277.082C163.418,277.23 163.318,277.488 163.318,277.855L163.318,278.136Z" style="fill-rule:nonzero;"/>
        <path d="M178.975,278.711C179.225,278.546 179.473,278.392 179.719,278.248C179.965,278.103 180.185,277.945 180.381,277.773C180.576,277.601 180.734,277.404 180.855,277.181C180.976,276.959 181.037,276.687 181.037,276.367C181.037,276.07 180.996,275.773 180.914,275.476C180.832,275.179 180.721,274.92 180.58,274.697C180.439,274.474 180.279,274.312 180.1,274.211C179.92,274.109 179.736,274.097 179.549,274.175C179.385,274.238 179.244,274.451 179.127,274.814C179.01,275.177 178.892,275.617 178.775,276.132C178.658,276.648 178.519,277.191 178.359,277.761C178.199,278.332 177.994,278.855 177.744,279.332C177.494,279.808 177.182,280.195 176.807,280.492C176.432,280.789 175.963,280.914 175.4,280.867C174.674,280.812 174.096,280.642 173.666,280.357C173.236,280.072 172.912,279.728 172.693,279.326C172.475,278.923 172.336,278.492 172.277,278.031C172.219,277.57 172.189,277.14 172.189,276.742C172.189,276 172.371,275.314 172.734,274.685C173.098,274.056 173.564,273.513 174.135,273.056C174.705,272.599 175.346,272.246 176.057,271.996C176.767,271.746 177.467,271.621 178.154,271.621C178.803,271.621 179.443,271.734 180.076,271.961C180.709,272.187 181.279,272.509 181.787,272.927C182.295,273.345 182.707,273.841 183.023,274.416C183.34,274.99 183.498,275.621 183.498,276.308C183.498,276.793 183.435,277.269 183.31,277.738C183.185,278.207 183.004,278.644 182.766,279.05C182.527,279.457 182.238,279.826 181.898,280.158C181.559,280.49 181.178,280.757 180.756,280.961C180.592,281.039 180.42,281.103 180.24,281.154C180.06,281.205 179.861,281.214 179.642,281.183C179.517,281.168 179.387,281.103 179.25,280.99C179.113,280.877 178.988,280.746 178.875,280.597C178.762,280.449 178.668,280.3 178.594,280.152C178.519,280.004 178.482,279.875 178.482,279.765C178.482,279.687 178.49,279.597 178.506,279.496C178.521,279.394 178.551,279.293 178.594,279.191C178.637,279.089 178.687,278.996 178.746,278.91C178.805,278.824 178.881,278.757 178.975,278.711ZM174.639,276.906C174.639,277 174.652,277.138 174.68,277.322C174.707,277.505 174.748,277.691 174.803,277.879C174.857,278.066 174.932,278.23 175.025,278.371C175.119,278.511 175.225,278.582 175.342,278.582C175.428,278.582 175.519,278.492 175.617,278.312C175.715,278.132 175.809,277.904 175.898,277.627C175.988,277.349 176.078,277.045 176.168,276.712C176.258,276.38 176.336,276.06 176.402,275.752C176.469,275.443 176.523,275.17 176.566,274.931C176.609,274.693 176.631,274.527 176.631,274.433C176.631,274.363 176.627,274.293 176.619,274.222C176.611,274.152 176.56,274.117 176.467,274.117C176.225,274.117 175.99,274.222 175.764,274.433C175.537,274.644 175.34,274.896 175.172,275.189C175.004,275.482 174.873,275.787 174.779,276.103C174.685,276.42 174.639,276.687 174.639,276.906Z" style="fill-rule:nonzero;"/>
        <path d="M194.842,273.343C194.904,273.617 194.918,273.845 194.883,274.029C194.848,274.212 194.773,274.365 194.66,274.486C194.547,274.607 194.4,274.705 194.221,274.779C194.041,274.853 193.846,274.91 193.635,274.949C193.494,275.004 193.367,275.043 193.254,275.066C193.141,275.089 193.033,275.117 192.932,275.148C192.83,275.179 192.732,275.216 192.639,275.259C192.545,275.302 192.455,275.371 192.369,275.464C192.213,275.629 192.105,275.836 192.047,276.086C191.988,276.336 191.955,276.595 191.947,276.865C191.939,277.134 191.947,277.408 191.971,277.685C191.994,277.962 192.006,278.211 192.006,278.429C192.006,278.578 192.023,278.787 192.059,279.056C192.094,279.326 192.115,279.595 192.123,279.865C192.131,280.134 192.113,280.382 192.07,280.609C192.027,280.836 191.935,280.98 191.795,281.043C191.654,281.105 191.514,281.15 191.373,281.177C191.232,281.205 191.098,281.22 190.969,281.224C190.84,281.228 190.723,281.226 190.617,281.218C190.512,281.211 190.428,281.207 190.365,281.207C190.193,281.207 190.029,281.199 189.873,281.183C189.717,281.168 189.568,281.105 189.428,280.996C189.334,280.91 189.266,280.755 189.223,280.533C189.18,280.31 189.148,280.07 189.129,279.812C189.109,279.554 189.101,279.3 189.105,279.05C189.109,278.8 189.111,278.617 189.111,278.5L189.111,277.972C189.111,277.777 189.09,277.599 189.047,277.439C189.004,277.279 188.934,277.154 188.836,277.064C188.738,276.974 188.584,276.957 188.373,277.011C188.209,277.058 188.017,277.138 187.799,277.252C187.58,277.365 187.355,277.478 187.125,277.591C186.894,277.705 186.654,277.806 186.404,277.896C186.154,277.986 185.912,278.031 185.678,278.031C185.514,278.031 185.367,277.968 185.238,277.843C185.109,277.718 185.002,277.568 184.916,277.392C184.83,277.216 184.764,277.031 184.717,276.836C184.67,276.64 184.646,276.472 184.646,276.332C184.646,276.089 184.728,275.89 184.892,275.734C184.924,275.703 185.043,275.652 185.25,275.582C185.457,275.511 185.715,275.423 186.023,275.318C186.332,275.212 186.666,275.103 187.025,274.99C187.385,274.877 187.73,274.767 188.062,274.662C188.394,274.556 188.691,274.461 188.953,274.375C189.215,274.289 189.396,274.226 189.498,274.187C189.959,274.007 190.4,273.793 190.822,273.543C191.244,273.293 191.666,273.035 192.088,272.769L192.088,272.781C192.158,272.734 192.256,272.67 192.381,272.587C192.506,272.505 192.637,272.421 192.773,272.336C192.91,272.25 193.045,272.177 193.178,272.119C193.31,272.06 193.416,272.031 193.494,272.031C193.603,272.031 193.73,272.08 193.875,272.177C194.019,272.275 194.158,272.394 194.291,272.535C194.424,272.675 194.543,272.82 194.648,272.968C194.754,273.117 194.818,273.242 194.842,273.343Z" style="fill-rule:nonzero;"/>
        <path d="M206.807,271.632C206.963,271.882 207.107,272.109 207.24,272.312C207.35,272.515 207.447,272.699 207.533,272.863C207.619,273.027 207.658,273.14 207.65,273.203C207.642,273.289 207.594,273.369 207.504,273.443C207.414,273.517 207.31,273.582 207.193,273.636C207.076,273.691 206.959,273.732 206.842,273.759C206.725,273.787 206.627,273.796 206.549,273.789C206.455,273.781 206.334,273.695 206.185,273.531C206.037,273.367 205.894,273.177 205.758,272.962C205.621,272.748 205.506,272.537 205.412,272.33C205.318,272.123 205.275,271.968 205.283,271.867C205.291,271.781 205.332,271.701 205.406,271.627C205.48,271.552 205.57,271.488 205.676,271.433C205.781,271.379 205.891,271.336 206.004,271.304C206.117,271.273 206.209,271.261 206.279,271.269C206.373,271.277 206.441,271.295 206.484,271.322C206.527,271.349 206.566,271.382 206.601,271.421C206.637,271.461 206.666,271.5 206.689,271.539C206.713,271.578 206.752,271.609 206.807,271.632ZM204.603,272.019C204.658,272.082 204.728,272.177 204.814,272.306C204.9,272.435 204.988,272.57 205.078,272.711C205.168,272.851 205.244,272.986 205.307,273.115C205.369,273.244 205.4,273.351 205.4,273.437C205.4,273.531 205.361,273.619 205.283,273.701C205.205,273.783 205.107,273.857 204.99,273.923C204.873,273.99 204.754,274.043 204.633,274.082C204.512,274.121 204.412,274.14 204.334,274.14C204.217,274.14 204.096,274.089 203.971,273.988C203.846,273.886 203.767,273.781 203.736,273.671L203.736,273.683C203.697,273.629 203.637,273.541 203.555,273.42C203.473,273.298 203.394,273.171 203.32,273.039C203.246,272.906 203.18,272.779 203.121,272.658C203.062,272.537 203.033,272.449 203.033,272.394C203.033,272.293 203.072,272.199 203.15,272.113C203.228,272.027 203.322,271.949 203.432,271.879C203.541,271.808 203.654,271.754 203.771,271.714C203.889,271.675 203.986,271.656 204.064,271.656C204.189,271.656 204.297,271.695 204.387,271.773C204.476,271.851 204.553,271.937 204.615,272.031L204.603,272.019ZM198.932,277.855C198.877,277.949 198.81,278.058 198.732,278.183C198.654,278.308 198.566,278.429 198.469,278.546C198.371,278.664 198.266,278.765 198.152,278.851C198.039,278.937 197.924,278.98 197.807,278.98C197.689,278.98 197.533,278.939 197.338,278.857C197.142,278.775 196.955,278.671 196.775,278.546C196.596,278.421 196.443,278.287 196.318,278.142C196.193,277.998 196.131,277.855 196.131,277.714C196.131,277.613 196.193,277.447 196.318,277.216C196.443,276.986 196.607,276.726 196.81,276.437C197.014,276.148 197.236,275.845 197.478,275.529C197.721,275.212 197.957,274.912 198.187,274.627C198.418,274.341 198.631,274.089 198.826,273.871C199.021,273.652 199.166,273.5 199.26,273.414C199.494,273.187 199.721,273.041 199.939,272.974C200.158,272.908 200.428,272.875 200.748,272.875C201.045,272.875 201.322,272.896 201.58,272.939C201.838,272.982 202.088,273.093 202.33,273.273C202.447,273.367 202.656,273.548 202.957,273.818C203.258,274.087 203.598,274.406 203.976,274.773C204.355,275.14 204.75,275.531 205.16,275.945C205.57,276.359 205.945,276.75 206.285,277.117C206.625,277.484 206.904,277.808 207.123,278.089C207.342,278.371 207.451,278.562 207.451,278.664C207.451,278.773 207.391,278.914 207.269,279.086C207.148,279.257 206.998,279.423 206.818,279.584C206.639,279.744 206.457,279.88 206.273,279.994C206.09,280.107 205.943,280.164 205.834,280.164C205.693,280.164 205.484,280.046 205.207,279.812C204.93,279.578 204.625,279.283 204.293,278.927C203.961,278.572 203.613,278.187 203.25,277.773C202.887,277.359 202.543,276.974 202.219,276.619C201.894,276.263 201.603,275.966 201.346,275.728C201.088,275.49 200.904,275.371 200.795,275.371C200.771,275.371 200.711,275.425 200.613,275.535C200.516,275.644 200.404,275.783 200.279,275.951C200.154,276.119 200.021,276.304 199.881,276.507C199.74,276.711 199.603,276.904 199.471,277.087C199.338,277.271 199.223,277.435 199.125,277.58C199.027,277.724 198.959,277.82 198.92,277.867L198.932,277.855Z" style="fill-rule:nonzero;"/>
        <path d="M209.713,273.941C209.627,273.886 209.547,273.814 209.473,273.724C209.398,273.634 209.361,273.535 209.361,273.425C209.361,273.285 209.406,273.125 209.496,272.945C209.586,272.765 209.697,272.593 209.83,272.429C209.963,272.265 210.109,272.127 210.269,272.013C210.43,271.9 210.584,271.843 210.732,271.843C210.834,271.843 210.98,271.873 211.172,271.931C211.363,271.99 211.576,272.064 211.81,272.154C212.045,272.244 212.283,272.349 212.525,272.47C212.767,272.591 212.986,272.716 213.182,272.845C213.377,272.974 213.539,273.105 213.668,273.238C213.797,273.371 213.861,273.492 213.861,273.601C213.861,273.718 213.82,273.867 213.738,274.046C213.656,274.226 213.551,274.398 213.422,274.562C213.293,274.726 213.152,274.869 213,274.99C212.848,275.111 212.709,275.171 212.584,275.171C212.49,275.171 212.307,275.117 212.033,275.007C211.76,274.898 211.467,274.775 211.154,274.638C210.842,274.502 210.547,274.365 210.269,274.228C209.992,274.091 209.807,273.996 209.713,273.941ZM217.588,272.933C217.736,272.933 217.904,272.955 218.092,272.998C218.279,273.041 218.457,273.105 218.625,273.191C218.793,273.277 218.934,273.388 219.047,273.525C219.16,273.662 219.217,273.824 219.217,274.011C219.217,274.316 219.148,274.607 219.012,274.884C218.875,275.162 218.744,275.433 218.619,275.699C218.01,276.972 217.213,278 216.228,278.781C215.244,279.562 214.084,280.136 212.748,280.504C212.475,280.574 212.168,280.634 211.828,280.685C211.488,280.736 211.178,280.761 210.896,280.761C210.654,280.761 210.437,280.718 210.246,280.632C210.055,280.546 209.892,280.423 209.76,280.263C209.627,280.103 209.535,279.912 209.484,279.689C209.434,279.466 209.424,279.23 209.455,278.98C209.478,278.808 209.529,278.668 209.607,278.558C209.685,278.449 209.767,278.357 209.853,278.283C209.939,278.209 210.025,278.154 210.111,278.119C210.197,278.084 210.26,278.062 210.299,278.054C210.705,278.007 211.041,277.976 211.307,277.961C211.572,277.945 211.85,277.929 212.139,277.914C212.357,277.898 212.586,277.867 212.824,277.82C213.062,277.773 213.283,277.695 213.486,277.586C213.9,277.367 214.279,277.109 214.623,276.812C214.982,276.5 215.285,276.177 215.531,275.845C215.777,275.513 216.017,275.14 216.252,274.726C216.361,274.531 216.465,274.33 216.562,274.123C216.66,273.916 216.752,273.711 216.838,273.507C216.861,273.445 216.887,273.382 216.914,273.32C216.941,273.257 216.975,273.203 217.014,273.156C217.107,273.054 217.193,272.992 217.271,272.968C217.35,272.945 217.455,272.933 217.588,272.933Z" style="fill-rule:nonzero;"/>
        <path d="M224.736,273.414C224.736,273.742 224.81,273.998 224.959,274.181C225.107,274.365 225.291,274.507 225.51,274.609C225.728,274.711 225.971,274.791 226.236,274.849C226.502,274.908 226.748,274.976 226.975,275.054C227.24,275.109 227.545,275.164 227.889,275.218C228.232,275.273 228.578,275.337 228.926,275.412C229.273,275.486 229.601,275.57 229.91,275.664C230.219,275.757 230.471,275.875 230.666,276.015C230.83,276.132 230.924,276.269 230.947,276.425C230.971,276.582 230.982,276.722 230.982,276.847C230.982,277.019 230.959,277.187 230.912,277.351C230.865,277.515 230.795,277.664 230.701,277.796C230.607,277.929 230.492,278.037 230.355,278.119C230.219,278.201 230.053,278.25 229.857,278.265C229.475,278.265 229.096,278.212 228.721,278.107C228.346,278.002 227.971,277.886 227.596,277.761C227.221,277.636 226.846,277.519 226.471,277.41C226.096,277.3 225.709,277.246 225.31,277.246C225.162,277.246 225.047,277.314 224.965,277.451C224.883,277.587 224.822,277.748 224.783,277.931C224.744,278.115 224.721,278.298 224.713,278.482C224.705,278.666 224.701,278.804 224.701,278.898C224.701,279.132 224.711,279.369 224.73,279.607C224.75,279.845 224.76,280.082 224.76,280.316C224.76,280.652 224.674,280.877 224.502,280.99C224.33,281.103 224.092,281.16 223.787,281.16C223.568,281.16 223.355,281.152 223.148,281.136C222.941,281.121 222.771,281.058 222.639,280.949C222.435,280.785 222.283,280.507 222.182,280.117C222.08,279.726 222.01,279.304 221.971,278.851C221.932,278.398 221.912,277.953 221.912,277.515L221.912,276.496C221.912,276.324 221.91,276.107 221.906,275.845C221.902,275.584 221.9,275.296 221.9,274.984C221.9,274.671 221.908,274.351 221.924,274.023C221.939,273.695 221.967,273.384 222.006,273.091C222.045,272.798 222.103,272.539 222.182,272.312C222.26,272.086 222.357,271.914 222.475,271.796C222.662,271.632 222.906,271.537 223.207,271.509C223.508,271.482 223.795,271.468 224.068,271.468C224.225,271.468 224.35,271.494 224.443,271.545C224.537,271.595 224.609,271.666 224.66,271.755C224.711,271.845 224.746,271.947 224.766,272.06C224.785,272.173 224.795,272.296 224.795,272.429C224.795,272.593 224.785,272.757 224.766,272.921C224.746,273.086 224.736,273.25 224.736,273.414Z" style="fill-rule:nonzero;"/>
        <path d="M241.342,271.492C241.342,271.57 241.398,271.63 241.512,271.673C241.625,271.716 241.754,271.746 241.898,271.761C242.043,271.777 242.184,271.787 242.32,271.791C242.457,271.795 242.557,271.804 242.619,271.82C242.728,271.843 242.814,271.898 242.877,271.984C242.939,272.07 242.986,272.17 243.017,272.283C243.049,272.396 243.072,272.511 243.088,272.629C243.103,272.746 243.111,272.851 243.111,272.945C243.111,273.046 243.08,273.127 243.017,273.185C242.955,273.244 242.881,273.287 242.795,273.314C242.709,273.341 242.615,273.357 242.514,273.361C242.412,273.365 242.326,273.367 242.256,273.367C242.115,273.367 241.982,273.359 241.857,273.343C241.732,273.328 241.6,273.32 241.459,273.32C241.412,273.32 241.353,273.332 241.283,273.355C241.213,273.379 241.178,273.421 241.178,273.484C241.178,273.539 241.223,273.58 241.312,273.607C241.402,273.634 241.508,273.652 241.629,273.66C241.75,273.668 241.867,273.671 241.98,273.671L242.197,273.671C242.502,273.671 242.707,273.724 242.812,273.83C242.918,273.935 242.971,274.14 242.971,274.445C242.971,274.531 242.945,274.597 242.894,274.644C242.844,274.691 242.783,274.726 242.713,274.75C242.642,274.773 242.564,274.789 242.478,274.796C242.392,274.804 242.318,274.808 242.256,274.808C242.146,274.808 242.033,274.804 241.916,274.796C241.799,274.789 241.678,274.785 241.553,274.785C241.475,274.785 241.402,274.795 241.336,274.814C241.269,274.834 241.236,274.894 241.236,274.996C241.26,275.043 241.324,275.074 241.43,275.089C241.535,275.105 241.65,275.117 241.775,275.125C241.9,275.132 242.021,275.134 242.139,275.13C242.256,275.127 242.338,275.125 242.385,275.125C242.549,275.125 242.674,275.14 242.76,275.171C242.846,275.203 242.908,275.254 242.947,275.324C242.986,275.394 243.01,275.48 243.017,275.582C243.025,275.683 243.029,275.804 243.029,275.945C243.029,276.07 242.937,276.146 242.754,276.173C242.57,276.201 242.369,276.216 242.15,276.22C241.932,276.224 241.73,276.234 241.547,276.25C241.363,276.265 241.271,276.328 241.271,276.437C241.271,276.476 241.297,276.507 241.348,276.531C241.398,276.554 241.461,276.572 241.535,276.584C241.609,276.595 241.68,276.601 241.746,276.601L241.892,276.601C242.033,276.601 242.164,276.597 242.285,276.589C242.406,276.582 242.537,276.578 242.678,276.578C242.85,276.578 243.012,276.607 243.164,276.666C243.316,276.724 243.392,276.859 243.392,277.07C243.392,277.226 243.377,277.367 243.346,277.492C243.314,277.632 243.221,277.734 243.064,277.796C242.971,277.843 242.846,277.88 242.689,277.908C242.533,277.935 242.369,277.955 242.197,277.966C242.025,277.978 241.857,277.986 241.693,277.99C241.529,277.994 241.392,277.996 241.283,277.996C241.119,277.996 240.959,277.992 240.803,277.984C240.646,277.976 240.49,277.972 240.334,277.972L240.064,277.972C239.924,277.972 239.777,277.978 239.625,277.99C239.473,278.002 239.336,278.021 239.215,278.048C239.094,278.076 239.033,278.121 239.033,278.183C239.033,278.222 239.055,278.255 239.098,278.283C239.141,278.31 239.189,278.332 239.244,278.347C239.299,278.363 239.353,278.375 239.408,278.382C239.463,278.39 239.506,278.394 239.537,278.394C240.014,278.394 240.486,278.386 240.955,278.371C241.424,278.355 241.892,278.347 242.361,278.347L242.73,278.347C242.844,278.347 242.943,278.365 243.029,278.4C243.115,278.435 243.182,278.494 243.228,278.576C243.275,278.658 243.299,278.785 243.299,278.957C243.299,279.113 243.287,279.275 243.264,279.443C243.24,279.611 243.146,279.738 242.982,279.824C242.842,279.91 242.652,279.966 242.414,279.994C242.176,280.021 241.92,280.039 241.646,280.046C241.373,280.054 241.092,280.058 240.803,280.058C240.514,280.058 240.244,280.076 239.994,280.111C239.744,280.146 239.527,280.205 239.344,280.287C239.16,280.369 239.041,280.488 238.986,280.644C238.955,280.73 238.941,280.818 238.945,280.908C238.949,280.998 238.951,281.086 238.951,281.171C238.951,281.32 238.924,281.433 238.869,281.511C238.814,281.589 238.742,281.65 238.652,281.693C238.562,281.736 238.463,281.763 238.353,281.775C238.244,281.787 238.131,281.793 238.014,281.793C237.889,281.793 237.76,281.791 237.627,281.787C237.494,281.783 237.369,281.761 237.252,281.722C237.01,281.66 236.861,281.574 236.807,281.464C236.752,281.355 236.723,281.238 236.719,281.113C236.715,280.988 236.709,280.857 236.701,280.72C236.693,280.584 236.619,280.461 236.478,280.351C236.377,280.273 236.236,280.216 236.057,280.181C235.877,280.146 235.689,280.123 235.494,280.111C235.299,280.099 235.105,280.093 234.914,280.093C234.723,280.093 234.557,280.089 234.416,280.082C234.322,280.074 234.187,280.068 234.012,280.064C233.836,280.06 233.658,280.05 233.478,280.035C233.299,280.019 233.129,279.996 232.969,279.964C232.809,279.933 232.693,279.89 232.623,279.836C232.537,279.781 232.471,279.709 232.424,279.619C232.377,279.529 232.342,279.433 232.318,279.332C232.295,279.23 232.281,279.125 232.277,279.015C232.273,278.906 232.271,278.808 232.271,278.722C232.271,278.582 232.283,278.484 232.307,278.429C232.33,278.375 232.365,278.343 232.412,278.336C232.459,278.328 232.517,278.326 232.588,278.33C232.658,278.334 232.74,278.32 232.834,278.289L232.857,278.23C232.834,278.199 232.793,278.144 232.734,278.066C232.676,277.988 232.615,277.902 232.553,277.808C232.49,277.714 232.435,277.627 232.389,277.545C232.342,277.462 232.318,277.394 232.318,277.339C232.318,277.23 232.422,277.08 232.629,276.888C232.836,276.697 233.076,276.507 233.35,276.32C233.623,276.132 233.891,275.968 234.152,275.828C234.414,275.687 234.6,275.617 234.709,275.617C234.85,275.726 234.978,275.851 235.096,275.992C235.213,276.132 235.353,276.238 235.517,276.308C235.541,276.207 235.555,276.107 235.559,276.009C235.562,275.912 235.564,275.812 235.564,275.711L235.564,275.382C235.564,275.257 235.551,275.14 235.523,275.031C235.496,274.921 235.447,274.832 235.377,274.761C235.307,274.691 235.197,274.656 235.049,274.656C234.939,274.656 234.846,274.701 234.767,274.791C234.689,274.88 234.615,274.974 234.545,275.072C234.475,275.17 234.404,275.263 234.334,275.353C234.264,275.443 234.17,275.488 234.053,275.488C233.967,275.488 233.818,275.447 233.607,275.365C233.396,275.283 233.18,275.185 232.957,275.072C232.734,274.959 232.539,274.839 232.371,274.714C232.203,274.589 232.119,274.476 232.119,274.375C232.119,274.32 232.15,274.234 232.213,274.117C232.275,274 232.35,273.879 232.435,273.754C232.521,273.629 232.611,273.519 232.705,273.425C232.799,273.332 232.873,273.285 232.928,273.285C233.092,273.285 233.246,273.312 233.391,273.367C233.535,273.421 233.672,273.478 233.801,273.537C233.93,273.595 234.057,273.65 234.182,273.701C234.307,273.752 234.428,273.777 234.545,273.777C234.701,273.777 234.836,273.707 234.949,273.566C235.062,273.425 235.164,273.252 235.254,273.045C235.344,272.837 235.434,272.613 235.523,272.371C235.613,272.129 235.711,271.902 235.816,271.691C235.922,271.48 236.047,271.306 236.191,271.17C236.336,271.033 236.51,270.964 236.713,270.964C236.783,270.964 236.867,270.966 236.965,270.97C237.062,270.974 237.16,270.982 237.258,270.994C237.355,271.005 237.451,271.021 237.545,271.041C237.639,271.06 237.713,271.089 237.767,271.129C237.853,271.183 237.916,271.242 237.955,271.304C237.994,271.367 238.033,271.423 238.072,271.474C238.111,271.525 238.162,271.566 238.225,271.597C238.287,271.629 238.385,271.644 238.517,271.644C238.846,271.644 239.059,271.609 239.156,271.539C239.254,271.468 239.316,271.386 239.344,271.293C239.371,271.199 239.398,271.117 239.426,271.046C239.453,270.976 239.564,270.941 239.76,270.941C239.838,270.941 239.963,270.945 240.135,270.953C240.307,270.961 240.482,270.982 240.662,271.017C240.842,271.052 241.002,271.099 241.142,271.158C241.283,271.216 241.357,271.304 241.365,271.421L241.342,271.492ZM235.307,272.113C235.307,272.207 235.279,272.32 235.225,272.453C235.17,272.586 235.098,272.712 235.008,272.834C234.918,272.955 234.818,273.054 234.709,273.132C234.6,273.211 234.49,273.25 234.381,273.25C234.303,273.25 234.174,273.222 233.994,273.168C233.814,273.113 233.631,273.041 233.443,272.951C233.256,272.861 233.092,272.765 232.951,272.664C232.81,272.562 232.74,272.461 232.74,272.359C232.74,272.265 232.773,272.154 232.84,272.025C232.906,271.896 232.992,271.775 233.098,271.662C233.203,271.548 233.314,271.449 233.432,271.363C233.549,271.277 233.654,271.234 233.748,271.234C233.842,271.234 233.976,271.257 234.152,271.304C234.328,271.351 234.5,271.416 234.668,271.498C234.836,271.58 234.984,271.673 235.113,271.779C235.242,271.884 235.307,271.996 235.307,272.113ZM238.377,273.261C238.346,273.261 238.301,273.259 238.242,273.255C238.184,273.252 238.123,273.254 238.06,273.261C237.998,273.269 237.943,273.285 237.896,273.308C237.85,273.332 237.826,273.375 237.826,273.437C237.826,273.492 237.873,273.533 237.967,273.56C238.06,273.587 238.162,273.605 238.271,273.613C238.381,273.621 238.486,273.625 238.588,273.625L238.764,273.625C238.826,273.625 238.898,273.613 238.98,273.589C239.062,273.566 239.103,273.511 239.103,273.425L239.092,273.332C239.006,273.3 238.924,273.281 238.846,273.273C238.767,273.265 238.689,273.261 238.611,273.261L238.377,273.261ZM238.857,275.101C238.912,275.101 238.969,275.091 239.027,275.072C239.086,275.052 239.115,275.011 239.115,274.949C239.115,274.863 239.086,274.808 239.027,274.785C238.969,274.761 238.908,274.75 238.846,274.75C238.807,274.75 238.766,274.752 238.723,274.755C238.68,274.759 238.639,274.761 238.6,274.761C238.537,274.761 238.49,274.757 238.459,274.75C238.428,274.757 238.381,274.761 238.318,274.761C238.279,274.761 238.236,274.759 238.189,274.755C238.142,274.752 238.092,274.75 238.037,274.75C237.889,274.75 237.814,274.824 237.814,274.972L237.826,275.054C237.865,275.07 237.914,275.082 237.973,275.089C238.031,275.097 238.088,275.101 238.142,275.101L238.857,275.101ZM237.814,276.496C237.814,276.527 237.846,276.55 237.908,276.566C237.971,276.582 238.043,276.593 238.125,276.601C238.207,276.609 238.283,276.613 238.353,276.613L238.494,276.613C238.541,276.613 238.59,276.615 238.641,276.619C238.691,276.623 238.74,276.625 238.787,276.625C238.857,276.625 238.934,276.611 239.016,276.584C239.098,276.556 239.139,276.5 239.139,276.414C239.139,276.359 239.1,276.322 239.021,276.302C238.943,276.283 238.857,276.267 238.764,276.255C238.67,276.244 238.578,276.238 238.488,276.238L238.318,276.238C238.232,276.238 238.127,276.248 238.002,276.267C237.877,276.287 237.814,276.363 237.814,276.496ZM236.689,278.195C236.689,278.132 236.672,278.087 236.637,278.06C236.601,278.033 236.559,278.015 236.508,278.007C236.457,278 236.404,277.998 236.35,278.002C236.295,278.005 236.248,278.007 236.209,278.007C236.139,278.007 236.057,278.002 235.963,277.99C235.869,277.978 235.791,277.953 235.728,277.914C235.666,277.859 235.631,277.793 235.623,277.714C235.615,277.636 235.611,277.554 235.611,277.468C235.611,277.382 235.601,277.31 235.582,277.252C235.562,277.193 235.514,277.164 235.435,277.164C235.389,277.164 235.293,277.211 235.148,277.304C235.004,277.398 234.851,277.5 234.691,277.609C234.531,277.718 234.391,277.828 234.269,277.937C234.148,278.046 234.088,278.121 234.088,278.16C234.088,278.222 234.152,278.271 234.281,278.306C234.41,278.341 234.559,278.369 234.726,278.388C234.894,278.408 235.057,278.418 235.213,278.418L235.881,278.418C235.92,278.418 235.984,278.416 236.074,278.412C236.164,278.408 236.252,278.398 236.338,278.382C236.424,278.367 236.504,278.343 236.578,278.312C236.652,278.281 236.689,278.242 236.689,278.195Z" style="fill-rule:nonzero;"/>
        <path d="M251.76,271.632C251.846,271.632 251.904,271.613 251.935,271.574C251.967,271.535 251.988,271.486 252,271.427C252.012,271.369 252.021,271.308 252.029,271.246C252.037,271.183 252.06,271.125 252.1,271.07C252.123,271.031 252.162,271.005 252.217,270.994C252.271,270.982 252.332,270.974 252.398,270.97C252.465,270.966 252.531,270.966 252.598,270.97C252.664,270.974 252.709,270.976 252.732,270.976C252.795,270.976 252.887,270.978 253.008,270.982C253.129,270.986 253.252,270.992 253.377,271C253.502,271.007 253.619,271.021 253.728,271.041C253.838,271.06 253.912,271.089 253.951,271.129C253.99,271.168 254.017,271.214 254.033,271.269C254.049,271.324 254.066,271.382 254.086,271.445C254.105,271.507 254.127,271.562 254.15,271.609C254.174,271.656 254.217,271.691 254.279,271.714C254.365,271.746 254.451,271.761 254.537,271.761C254.623,271.761 254.709,271.765 254.795,271.773C254.834,271.773 254.869,271.777 254.9,271.785C254.932,271.793 254.967,271.8 255.006,271.808C255.1,271.832 255.17,271.892 255.217,271.99C255.264,272.087 255.299,272.197 255.322,272.318C255.346,272.439 255.359,272.556 255.363,272.67C255.367,272.783 255.369,272.879 255.369,272.957C255.369,273.113 255.322,273.209 255.228,273.244C255.135,273.279 255.017,273.296 254.877,273.296C254.822,273.296 254.767,273.295 254.713,273.291C254.658,273.287 254.6,273.285 254.537,273.285C254.475,273.285 254.42,273.298 254.373,273.326C254.326,273.353 254.303,273.402 254.303,273.472C254.303,273.574 254.336,273.644 254.402,273.683C254.469,273.722 254.549,273.742 254.642,273.742C254.697,273.742 254.748,273.738 254.795,273.73C254.842,273.722 254.892,273.718 254.947,273.718C255.205,273.718 255.385,273.789 255.486,273.929C255.588,274.07 255.639,274.261 255.639,274.504L255.639,274.656C255.639,274.703 255.635,274.75 255.627,274.796C255.619,274.882 255.519,274.951 255.328,275.002C255.137,275.052 254.922,275.093 254.684,275.125C254.445,275.156 254.217,275.175 253.998,275.183C253.779,275.191 253.631,275.195 253.553,275.195C253.014,275.195 252.475,275.187 251.935,275.171C251.396,275.156 250.853,275.148 250.307,275.148C250.283,275.148 250.23,275.15 250.148,275.154C250.066,275.158 249.98,275.166 249.891,275.177C249.801,275.189 249.721,275.203 249.65,275.218C249.58,275.234 249.545,275.257 249.545,275.289C249.545,275.32 249.592,275.349 249.685,275.377C249.779,275.404 249.885,275.421 250.002,275.429C250.119,275.437 250.232,275.443 250.342,275.447C250.451,275.451 250.521,275.453 250.553,275.453C250.982,275.453 251.404,275.443 251.818,275.423C252.232,275.404 252.654,275.394 253.084,275.394C253.271,275.394 253.467,275.4 253.67,275.412C253.873,275.423 254.07,275.455 254.262,275.505C254.453,275.556 254.629,275.636 254.789,275.746C254.949,275.855 255.084,276 255.193,276.179C255.303,276.382 255.357,276.613 255.357,276.871L255.357,277.597C255.357,277.832 255.353,278.109 255.346,278.429C255.338,278.75 255.316,279.076 255.281,279.408C255.246,279.74 255.193,280.056 255.123,280.357C255.053,280.658 254.963,280.91 254.853,281.113C254.807,281.199 254.703,281.267 254.543,281.318C254.383,281.369 254.207,281.41 254.016,281.441C253.824,281.472 253.637,281.492 253.453,281.5C253.269,281.507 253.131,281.511 253.037,281.511C252.904,281.511 252.82,281.455 252.785,281.341C252.75,281.228 252.732,281.117 252.732,281.007L252.732,280.814C252.732,280.732 252.734,280.648 252.738,280.562C252.742,280.476 252.75,280.394 252.762,280.316C252.773,280.238 252.787,280.179 252.803,280.14C252.842,280.062 252.889,280.019 252.943,280.011C252.998,280.004 253.053,279.996 253.107,279.988C253.162,279.98 253.209,279.962 253.248,279.935C253.287,279.908 253.307,279.832 253.307,279.707C253.307,279.636 253.287,279.593 253.248,279.578C253.209,279.562 253.158,279.554 253.096,279.554C253.025,279.554 252.945,279.562 252.855,279.578C252.766,279.593 252.709,279.64 252.685,279.718C252.639,279.875 252.621,280.056 252.633,280.263C252.644,280.47 252.635,280.666 252.603,280.849C252.572,281.033 252.498,281.189 252.381,281.318C252.264,281.447 252.045,281.511 251.725,281.511C251.443,281.511 251.238,281.461 251.109,281.359C250.98,281.257 250.916,281.058 250.916,280.761C250.916,280.613 250.924,280.466 250.939,280.322C250.955,280.177 250.963,280.035 250.963,279.894C250.963,279.839 250.955,279.795 250.939,279.759C250.924,279.724 250.908,279.687 250.892,279.648C250.814,279.625 250.732,279.613 250.646,279.613C250.545,279.613 250.475,279.66 250.435,279.754C250.396,279.847 250.371,279.955 250.359,280.076C250.348,280.197 250.344,280.32 250.348,280.445C250.351,280.57 250.353,280.66 250.353,280.714C250.353,280.918 250.338,281.076 250.307,281.189C250.275,281.302 250.219,281.39 250.137,281.453C250.055,281.515 249.953,281.554 249.832,281.57C249.711,281.586 249.557,281.593 249.369,281.593C249.197,281.593 249.059,281.545 248.953,281.447C248.848,281.349 248.769,281.228 248.719,281.084C248.668,280.939 248.637,280.785 248.625,280.621C248.613,280.457 248.607,280.308 248.607,280.175C248.607,279.972 248.613,279.775 248.625,279.584C248.637,279.392 248.642,279.199 248.642,279.004L248.631,278.98C248.6,279.082 248.559,279.246 248.508,279.472C248.457,279.699 248.406,279.933 248.355,280.175C248.305,280.418 248.25,280.64 248.191,280.843C248.133,281.046 248.076,281.175 248.021,281.23L247.904,281.277C247.857,281.277 247.787,281.226 247.693,281.125C247.6,281.023 247.504,280.91 247.406,280.785C247.309,280.66 247.215,280.545 247.125,280.439C247.035,280.334 246.967,280.281 246.92,280.281L246.814,280.375C246.814,280.5 246.82,280.621 246.832,280.738C246.844,280.855 246.85,280.972 246.85,281.089C246.85,281.332 246.787,281.47 246.662,281.505C246.537,281.541 246.373,281.558 246.17,281.558C245.982,281.558 245.803,281.546 245.631,281.523C245.459,281.5 245.307,281.418 245.174,281.277C245.08,281.183 245.004,280.99 244.945,280.697C244.887,280.404 244.842,280.086 244.81,279.742C244.779,279.398 244.758,279.064 244.746,278.74C244.734,278.416 244.728,278.183 244.728,278.043C244.728,277.98 244.711,277.906 244.676,277.82C244.641,277.734 244.58,277.691 244.494,277.691C244.455,277.73 244.414,277.779 244.371,277.837C244.328,277.896 244.275,277.925 244.213,277.925C244.182,277.925 244.16,277.904 244.148,277.861C244.137,277.818 244.127,277.789 244.119,277.773C244.041,277.523 243.975,277.257 243.92,276.976C243.865,276.695 243.838,276.418 243.838,276.144C243.838,275.879 243.869,275.65 243.932,275.459C243.994,275.267 244.074,275.087 244.172,274.92C244.269,274.752 244.379,274.584 244.5,274.416C244.621,274.248 244.736,274.058 244.846,273.847C245.049,273.464 245.211,273.076 245.332,272.681C245.453,272.287 245.611,271.898 245.807,271.515C245.885,271.351 245.982,271.244 246.1,271.193C246.217,271.142 246.357,271.117 246.521,271.117C246.646,271.117 246.777,271.121 246.914,271.129C247.051,271.136 247.174,271.16 247.283,271.199C247.346,271.222 247.416,271.248 247.494,271.275C247.572,271.302 247.642,271.336 247.705,271.375C247.775,271.429 247.842,271.49 247.904,271.556C247.967,271.623 248.045,271.656 248.139,271.656L248.338,271.656C248.416,271.656 248.494,271.646 248.572,271.627C248.65,271.607 248.715,271.578 248.766,271.539C248.816,271.5 248.842,271.437 248.842,271.351C248.842,271.336 248.84,271.316 248.836,271.293C248.832,271.269 248.83,271.246 248.83,271.222C248.83,271.129 248.881,271.06 248.982,271.017C249.084,270.974 249.201,270.943 249.334,270.923C249.467,270.904 249.6,270.894 249.732,270.894L250.014,270.894C250.107,270.894 250.209,270.89 250.318,270.882C250.428,270.875 250.529,270.894 250.623,270.941C250.717,270.988 250.775,271.041 250.799,271.099C250.822,271.158 250.836,271.218 250.84,271.281C250.844,271.343 250.851,271.404 250.863,271.462C250.875,271.521 250.92,271.562 250.998,271.586C251.037,271.601 251.082,271.615 251.133,271.627C251.184,271.638 251.228,271.64 251.267,271.632L251.76,271.632ZM248.807,273.39C248.807,273.296 248.762,273.24 248.672,273.22C248.582,273.201 248.506,273.191 248.443,273.191C248.404,273.191 248.363,273.195 248.32,273.203C248.277,273.211 248.232,273.214 248.185,273.214C248.045,273.214 247.937,273.207 247.863,273.191C247.789,273.175 247.734,273.144 247.699,273.097C247.664,273.05 247.642,272.986 247.635,272.904C247.627,272.822 247.623,272.718 247.623,272.593L247.611,272.57C247.58,272.57 247.551,272.601 247.523,272.664C247.496,272.726 247.473,272.798 247.453,272.88C247.434,272.962 247.416,273.041 247.4,273.115C247.385,273.189 247.377,273.238 247.377,273.261C247.377,273.535 247.525,273.671 247.822,273.671L248.267,273.671C248.291,273.671 248.332,273.67 248.391,273.666C248.449,273.662 248.51,273.656 248.572,273.648C248.635,273.64 248.689,273.625 248.736,273.601C248.783,273.578 248.807,273.55 248.807,273.519L248.807,273.39ZM251.279,273.191C251.217,273.191 251.142,273.203 251.057,273.226C250.971,273.25 250.928,273.308 250.928,273.402C250.928,273.511 250.976,273.586 251.074,273.625C251.172,273.664 251.267,273.683 251.361,273.683C251.385,273.683 251.439,273.685 251.525,273.689C251.611,273.693 251.697,273.691 251.783,273.683C251.869,273.675 251.949,273.658 252.023,273.63C252.098,273.603 252.135,273.558 252.135,273.496C252.135,273.41 252.113,273.347 252.07,273.308C252.027,273.269 251.978,273.24 251.924,273.22C251.869,273.201 251.809,273.191 251.742,273.191L251.279,273.191ZM246.873,278.23C246.873,278.027 246.892,277.82 246.932,277.609C246.971,277.398 246.998,277.191 247.014,276.988C247.037,276.629 247.06,276.269 247.084,275.91C247.107,275.55 247.119,275.191 247.119,274.832C247.119,274.808 247.117,274.771 247.113,274.72C247.109,274.67 247.103,274.619 247.096,274.568C247.088,274.517 247.072,274.47 247.049,274.427C247.025,274.384 246.994,274.363 246.955,274.363C246.9,274.363 246.853,274.431 246.814,274.568C246.775,274.705 246.744,274.859 246.721,275.031C246.697,275.203 246.682,275.369 246.674,275.529C246.666,275.689 246.662,275.793 246.662,275.839C246.662,276.129 246.668,276.418 246.68,276.707C246.691,276.996 246.705,277.285 246.721,277.574C246.728,277.675 246.734,277.783 246.738,277.896C246.742,278.009 246.752,278.117 246.767,278.218C246.775,278.234 246.783,278.254 246.791,278.277C246.799,278.3 246.81,278.32 246.826,278.336L246.838,278.324L246.873,278.23ZM253.412,276.859C253.412,276.836 253.394,276.814 253.359,276.795C253.324,276.775 253.285,276.759 253.242,276.748C253.199,276.736 253.154,276.726 253.107,276.718C253.06,276.711 253.025,276.707 253.002,276.707C252.955,276.707 252.898,276.714 252.832,276.73C252.766,276.746 252.732,276.785 252.732,276.847L252.732,276.953C252.732,277.039 252.767,277.087 252.838,277.099C252.908,277.111 252.975,277.117 253.037,277.117C253.115,277.117 253.187,277.109 253.254,277.093C253.32,277.078 253.373,277.035 253.412,276.964L253.412,276.859ZM250.998,276.847C250.998,276.785 250.975,276.748 250.928,276.736C250.881,276.724 250.834,276.718 250.787,276.718L250.67,276.718C250.6,276.718 250.539,276.734 250.488,276.765C250.437,276.796 250.412,276.851 250.412,276.929C250.412,277.054 250.49,277.117 250.646,277.117L250.74,277.117C250.795,277.117 250.851,277.103 250.91,277.076C250.969,277.048 250.998,277.004 250.998,276.941L250.998,276.847ZM253.377,278.277C253.377,278.199 253.336,278.156 253.254,278.148C253.172,278.14 253.1,278.136 253.037,278.136C252.935,278.136 252.855,278.146 252.797,278.166C252.738,278.185 252.709,278.254 252.709,278.371C252.709,278.441 252.738,278.488 252.797,278.511C252.855,278.535 252.912,278.546 252.967,278.546C253.053,278.546 253.142,278.541 253.236,278.529C253.33,278.517 253.377,278.453 253.377,278.336L253.377,278.277ZM250.658,278.16C250.588,278.16 250.527,278.175 250.476,278.207C250.426,278.238 250.4,278.285 250.4,278.347C250.4,278.449 250.432,278.511 250.494,278.535C250.557,278.558 250.627,278.57 250.705,278.57L250.764,278.57C250.857,278.57 250.918,278.55 250.945,278.511C250.973,278.472 250.986,278.406 250.986,278.312C250.986,278.242 250.961,278.199 250.91,278.183C250.859,278.168 250.807,278.16 250.752,278.16L250.658,278.16Z" style="fill-rule:nonzero;"/>
        <path d="M155.49,288.718C155.576,288.82 155.709,288.904 155.889,288.97C156.068,289.037 156.267,289.101 156.486,289.164C156.705,289.226 156.934,289.293 157.172,289.363C157.41,289.433 157.631,289.521 157.834,289.627C158.037,289.732 158.205,289.867 158.338,290.031C158.471,290.195 158.541,290.398 158.549,290.64C158.557,290.734 158.512,290.884 158.414,291.091C158.316,291.298 158.195,291.504 158.051,291.707C157.906,291.91 157.756,292.089 157.6,292.246C157.443,292.402 157.318,292.48 157.225,292.48C157.115,292.48 156.998,292.439 156.873,292.357C156.748,292.275 156.617,292.183 156.48,292.082C156.344,291.98 156.205,291.879 156.064,291.777C155.924,291.675 155.791,291.605 155.666,291.566C155.58,291.582 155.508,291.629 155.449,291.707C155.391,291.785 155.324,291.884 155.25,292.005C155.176,292.127 155.078,292.257 154.957,292.398C154.836,292.539 154.668,292.673 154.453,292.802C154.238,292.931 153.967,293.043 153.639,293.136C153.31,293.23 152.896,293.296 152.396,293.336C151.959,293.375 151.523,293.336 151.09,293.218C150.656,293.101 150.266,292.916 149.918,292.662C149.57,292.408 149.289,292.091 149.074,291.712C148.859,291.334 148.752,290.898 148.752,290.406C148.752,290.195 148.775,289.992 148.822,289.796C148.869,289.601 148.959,289.421 149.092,289.257C149.318,288.953 149.607,288.72 149.959,288.56C150.31,288.4 150.674,288.293 151.049,288.238C151.244,288.207 151.439,288.185 151.635,288.173C151.83,288.162 152.025,288.152 152.221,288.144L152.332,288.144C152.367,288.144 152.404,288.14 152.443,288.132C152.482,288.125 152.521,288.119 152.56,288.115C152.6,288.111 152.635,288.101 152.666,288.086C152.697,288.062 152.719,287.98 152.73,287.839C152.742,287.699 152.748,287.543 152.748,287.371C152.748,287.199 152.746,287.035 152.742,286.879C152.738,286.722 152.736,286.617 152.736,286.562L152.736,285.847C152.736,285.511 152.748,285.164 152.771,284.804C152.795,284.445 152.834,284.115 152.889,283.814C152.943,283.513 153.033,283.332 153.158,283.269C153.275,283.207 153.391,283.171 153.504,283.164C153.617,283.156 153.74,283.152 153.873,283.152L154.166,283.152C154.291,283.152 154.42,283.16 154.553,283.175C154.685,283.191 154.803,283.218 154.904,283.257C155.006,283.296 155.076,283.363 155.115,283.457C155.146,283.535 155.164,283.611 155.168,283.685C155.172,283.759 155.174,283.839 155.174,283.925C155.174,284.027 155.187,284.13 155.215,284.236C155.242,284.341 155.275,284.441 155.314,284.535C155.346,284.613 155.394,284.671 155.461,284.711C155.527,284.75 155.603,284.777 155.689,284.793C155.775,284.808 155.863,284.818 155.953,284.822C156.043,284.826 156.123,284.828 156.193,284.828C156.365,284.828 156.539,284.826 156.715,284.822C156.891,284.818 157.072,284.816 157.26,284.816C157.494,284.816 157.715,284.847 157.922,284.91C158.129,284.972 158.31,285.093 158.467,285.273C158.592,285.414 158.662,285.574 158.678,285.754C158.693,285.933 158.701,286.105 158.701,286.269C158.701,286.293 158.697,286.33 158.689,286.38C158.682,286.431 158.67,286.468 158.654,286.492C158.623,286.57 158.551,286.63 158.437,286.673C158.324,286.716 158.199,286.748 158.062,286.767C157.926,286.787 157.791,286.798 157.658,286.802C157.525,286.806 157.424,286.808 157.353,286.808C157.174,286.808 156.996,286.804 156.82,286.796C156.644,286.789 156.471,286.785 156.299,286.785C156.072,286.785 155.892,286.802 155.76,286.837C155.627,286.873 155.529,286.931 155.467,287.013C155.404,287.095 155.365,287.205 155.35,287.341C155.334,287.478 155.326,287.652 155.326,287.863C155.326,288.16 155.385,288.449 155.502,288.73L155.49,288.718ZM151.986,290.089C151.9,290.089 151.809,290.099 151.711,290.119C151.613,290.138 151.525,290.17 151.447,290.212C151.369,290.255 151.305,290.314 151.254,290.388C151.203,290.462 151.178,290.55 151.178,290.652C151.178,290.785 151.205,290.898 151.26,290.992C151.314,291.086 151.389,291.16 151.482,291.214C151.576,291.269 151.68,291.308 151.793,291.332C151.906,291.355 152.025,291.367 152.15,291.367C152.4,291.367 152.566,291.3 152.648,291.168C152.73,291.035 152.771,290.851 152.771,290.617C152.771,290.554 152.769,290.494 152.766,290.435C152.762,290.377 152.76,290.316 152.76,290.254C152.721,290.175 152.656,290.129 152.566,290.113C152.476,290.097 152.396,290.089 152.326,290.089L151.986,290.089Z" style="fill-rule:nonzero;"/>
        <path d="M170.314,290.312C170.064,290.726 169.777,291.111 169.453,291.466C169.129,291.822 168.771,292.13 168.381,292.392C167.99,292.654 167.57,292.863 167.121,293.019C166.672,293.175 166.201,293.254 165.709,293.254C164.865,293.254 164.17,293.142 163.623,292.92C163.076,292.697 162.641,292.375 162.316,291.953C161.992,291.531 161.764,291.021 161.631,290.423C161.498,289.826 161.432,289.152 161.432,288.402L161.432,287.816C161.432,287.558 161.437,287.267 161.449,286.943C161.461,286.619 161.478,286.283 161.502,285.935C161.525,285.587 161.56,285.261 161.607,284.957C161.654,284.652 161.711,284.384 161.777,284.154C161.844,283.923 161.924,283.773 162.017,283.703C162.119,283.632 162.23,283.582 162.351,283.55C162.473,283.519 162.6,283.502 162.732,283.498C162.865,283.494 162.992,283.494 163.113,283.498C163.234,283.502 163.334,283.504 163.412,283.504C163.842,283.504 164.139,283.574 164.303,283.714C164.467,283.855 164.549,284.121 164.549,284.511C164.549,284.847 164.537,285.173 164.514,285.49C164.49,285.806 164.461,286.127 164.426,286.451C164.391,286.775 164.355,287.103 164.32,287.435C164.285,287.767 164.256,288.117 164.232,288.484C164.217,288.765 164.199,289.048 164.18,289.334C164.16,289.619 164.178,289.879 164.232,290.113C164.287,290.347 164.402,290.539 164.578,290.687C164.754,290.836 165.029,290.914 165.404,290.921C165.631,290.921 165.846,290.857 166.049,290.728C166.252,290.599 166.443,290.437 166.623,290.242C166.803,290.046 166.969,289.836 167.121,289.609C167.273,289.382 167.412,289.179 167.537,289C167.615,288.875 167.693,288.742 167.771,288.601C167.85,288.461 167.939,288.328 168.041,288.203C168.142,288.078 168.254,287.972 168.375,287.886C168.496,287.8 168.642,287.757 168.814,287.757C168.916,287.757 169.082,287.8 169.312,287.886C169.543,287.972 169.775,288.08 170.01,288.209C170.244,288.337 170.451,288.476 170.631,288.625C170.81,288.773 170.9,288.914 170.9,289.046C170.9,289.148 170.879,289.255 170.836,289.369C170.793,289.482 170.742,289.597 170.684,289.714C170.625,289.832 170.56,289.941 170.49,290.043C170.42,290.144 170.361,290.238 170.314,290.324L170.314,290.312Z" style="fill-rule:nonzero;"/>
        <path d="M179.807,289.023C179.807,288.781 179.75,288.584 179.637,288.431C179.523,288.279 179.379,288.164 179.203,288.086C179.027,288.007 178.836,287.953 178.629,287.921C178.422,287.89 178.221,287.875 178.025,287.875C177.713,287.875 177.41,287.906 177.117,287.968C176.824,288.031 176.531,288.097 176.238,288.168C175.945,288.238 175.65,288.304 175.353,288.367C175.057,288.429 174.752,288.461 174.439,288.461C174.33,288.461 174.232,288.421 174.146,288.343C174.06,288.265 173.988,288.171 173.93,288.062C173.871,287.953 173.826,287.837 173.795,287.716C173.764,287.595 173.744,287.488 173.736,287.394C173.713,287.121 173.791,286.894 173.971,286.714C174.15,286.535 174.391,286.39 174.691,286.281C174.992,286.171 175.33,286.091 175.705,286.041C176.08,285.99 176.447,285.955 176.807,285.935C177.166,285.916 177.496,285.908 177.797,285.912C178.098,285.916 178.318,285.918 178.459,285.918C178.935,285.918 179.396,285.988 179.842,286.129C180.287,286.269 180.684,286.476 181.031,286.75C181.379,287.023 181.66,287.359 181.875,287.757C182.09,288.156 182.197,288.613 182.197,289.129C182.197,289.566 182.113,289.964 181.945,290.324C181.777,290.683 181.551,291.005 181.266,291.291C180.98,291.576 180.652,291.824 180.281,292.035C179.91,292.246 179.519,292.42 179.109,292.556C178.699,292.693 178.289,292.796 177.879,292.867C177.469,292.937 177.08,292.972 176.713,292.972C176.189,292.972 175.805,292.839 175.559,292.574C175.312,292.308 175.232,291.976 175.318,291.578C175.381,291.289 175.535,291.082 175.781,290.957C176.027,290.832 176.316,290.746 176.648,290.699C176.98,290.652 177.332,290.615 177.703,290.587C178.074,290.56 178.416,290.5 178.728,290.406C179.041,290.312 179.299,290.162 179.502,289.955C179.705,289.748 179.807,289.437 179.807,289.023Z" style="fill-rule:nonzero;"/>
        <path d="M188.514,285.25C188.514,284.992 188.547,284.785 188.613,284.629C188.68,284.472 188.777,284.349 188.906,284.259C189.035,284.17 189.189,284.107 189.369,284.072C189.549,284.037 189.748,284.019 189.967,284.019C190.232,284.019 190.441,284.058 190.594,284.136C190.746,284.214 190.863,284.322 190.945,284.459C191.027,284.595 191.082,284.759 191.109,284.951C191.137,285.142 191.15,285.347 191.15,285.566L191.15,286.433C191.15,286.574 191.144,286.795 191.133,287.095C191.121,287.396 191.096,287.707 191.057,288.027C191.017,288.347 190.969,288.642 190.91,288.912C190.851,289.181 190.771,289.363 190.67,289.457C190.529,289.566 190.371,289.632 190.195,289.656C190.019,289.679 189.853,289.691 189.697,289.691C189.588,289.691 189.48,289.687 189.375,289.679C189.269,289.671 189.174,289.644 189.088,289.597C188.955,289.535 188.853,289.367 188.783,289.093C188.713,288.82 188.656,288.519 188.613,288.191C188.57,287.863 188.543,287.545 188.531,287.236C188.519,286.927 188.514,286.707 188.514,286.574L188.514,285.25ZM190.307,290.617C190.541,290.617 190.717,290.656 190.834,290.734C190.951,290.812 191.01,290.98 191.01,291.238L191.01,291.449C191.01,291.824 190.918,292.091 190.734,292.252C190.551,292.412 190.279,292.492 189.92,292.492C189.631,292.492 189.402,292.47 189.234,292.427C189.066,292.384 188.939,292.314 188.853,292.216C188.767,292.119 188.711,291.982 188.684,291.806C188.656,291.63 188.642,291.406 188.642,291.132C188.642,290.961 188.699,290.832 188.812,290.746C188.926,290.66 189.064,290.617 189.228,290.617L190.307,290.617Z" style="fill-rule:nonzero;"/>
    </g>
</svg>
