<?xml version="1.0" encoding="UTF-8" standalone="no"?>
<!DOCTYPE svg PUBLIC "-//W3C//DTD SVG 1.1//EN" "http://www.w3.org/Graphics/SVG/1.1/DTD/svg11.dtd">
<svg width="100%" height="100%" viewBox="0 0 123 123" version="1.1" xmlns="http://www.w3.org/2000/svg" xmlns:xlink="http://www.w3.org/1999/xlink" xml:space="preserve" xmlns:serif="http://www.serif.com/" style="fill-rule:evenodd;clip-rule:evenodd;stroke-linejoin:round;stroke-miterlimit:2;">
    <g transform="matrix(2.66667,0,0,2.66667,0,0)">
        <g>
            <clipPath id="_clip1">
                <path d="M31.64,23.205C31.64,22.567 31.582,21.953 31.476,21.364L23,21.364L23,24.845L27.843,24.845C27.635,25.97 27,26.924 26.047,27.562L26.047,29.82L28.956,29.82C30.658,28.253 31.64,25.946 31.64,23.205Z"/>
            </clipPath>
            <g clip-path="url(#_clip1)">
                <rect x="18" y="16.364" width="18.64" height="18.456" style="fill:rgb(67,133,244);fill-rule:nonzero;"/>
            </g>
            <clipPath id="_clip2">
                <path d="M23,32C25.43,32 27.467,31.195 28.956,29.82L26.047,27.562C25.241,28.102 24.21,28.421 23,28.421C20.655,28.421 18.671,26.838 17.964,24.71L14.957,24.71L14.957,27.042C16.438,29.984 19.481,32 23,32Z"/>
            </clipPath>
            <g clip-path="url(#_clip2)">
                <rect x="9.957" y="19.71" width="23.999" height="17.29" style="fill:rgb(54,167,85);fill-rule:nonzero;"/>
            </g>
            <clipPath id="_clip3">
                <path d="M17.964,24.71C17.784,24.17 17.681,23.594 17.681,23C17.681,22.407 17.784,21.83 17.964,21.29L17.964,18.959L14.957,18.959C14.347,20.174 14,21.548 14,23C14,24.453 14.347,25.827 14.957,27.042L17.964,24.71Z"/>
            </clipPath>
            <g clip-path="url(#_clip3)">
                <rect x="9" y="13.959" width="13.964" height="18.083" style="fill:rgb(251,187,0);fill-rule:nonzero;"/>
            </g>
            <clipPath id="_clip4">
                <path d="M23,17.58C24.321,17.58 25.507,18.034 26.44,18.926L29.021,16.345C27.463,14.892 25.425,14 23,14C19.481,14 16.438,16.017 14.957,18.959L17.964,21.29C18.671,19.163 20.655,17.58 23,17.58Z"/>
            </clipPath>
            <g clip-path="url(#_clip4)">
                <rect x="9.957" y="9" width="24.064" height="17.29" style="fill:rgb(234,69,57);fill-rule:nonzero;"/>
            </g>
        </g>
    </g>
</svg>
